<svg xmlns="http://www.w3.org/2000/svg" viewBox="0 0 760.2 287.08"><defs><style>.cls-1{fill:#f4e600;}.cls-2{fill:#d42185;}.cls-3{fill:#2dabe3;}.cls-4,.cls-5{fill:none;}.cls-4{stroke:#1e1e1c;stroke-miterlimit:10;stroke-width:0.75px;}.cls-6{fill:#010101;}</style></defs><g id="Capa_2" data-name="Capa 2"><g id="Capa_1-2" data-name="Capa 1"><path class="cls-1" d="M133,193.49h68.89a22.68,22.68,0,0,0,22.68-22.68V103.2H133Z"/><path class="cls-2" d="M202.18,0H132.75V90.42h92.11V22.68A22.68,22.68,0,0,0,202.18,0Z"/><rect class="cls-3" x="45.36" width="78.42" height="270.4"/><rect class="cls-4" x="36.39" y="10.37" width="78.42" height="270.4"/><path class="cls-4" d="M123.79,10.37h91.57a0,0,0,0,1,0,0v89a0,0,0,0,1,0,0H146.46a22.68,22.68,0,0,1-22.68-22.68V10.37A0,0,0,0,1,123.79,10.37Z" transform="translate(339.14 109.77) rotate(180)"/><path class="cls-4" d="M124.42,111.34h90.29a0,0,0,0,1,0,0V202.9a0,0,0,0,1,0,0H147.1a22.68,22.68,0,0,1-22.68-22.68V111.34A0,0,0,0,1,124.42,111.34Z" transform="translate(12.45 326.69) rotate(-90)"/><path class="cls-5" d="M594.77,259.89a8,8,0,0,0-5.58-2.2,7.55,7.55,0,0,0-5.54,2.45,7.78,7.78,0,0,0-2.4,5.64,6.93,6.93,0,0,0,2.24,5.25,7.59,7.59,0,0,0,5.46,2.14,8.08,8.08,0,0,0,8.21-8.19A6.73,6.73,0,0,0,594.77,259.89Z"/><path class="cls-5" d="M402.08,258.55a8.51,8.51,0,0,0-5.88,2.13,6.61,6.61,0,0,0-2.39,5.08,6,6,0,0,0,2,4.71,7.79,7.79,0,0,0,5.35,1.76,9.13,9.13,0,0,0,6-1.92,6.61,6.61,0,0,0,.23-9.85A7.66,7.66,0,0,0,402.08,258.55Z"/><path class="cls-5" d="M557.72,257.69a8,8,0,0,0-8,8,7.16,7.16,0,0,0,2.21,5.38,7.74,7.74,0,0,0,5.58,2.12,7.58,7.58,0,0,0,5.69-2.32,8.15,8.15,0,0,0,2.25-5.93,6.71,6.71,0,0,0-2.31-5.09A7.79,7.79,0,0,0,557.72,257.69Z"/><path class="cls-5" d="M371.66,257.75a7.68,7.68,0,0,0-5.73,2.38A8.06,8.06,0,0,0,363.6,266a6.83,6.83,0,0,0,2.28,5.19,7.81,7.81,0,0,0,5.54,2.14,7.68,7.68,0,0,0,5.66-2.4,7.9,7.9,0,0,0,2.37-5.78,6.9,6.9,0,0,0-2.3-5.21A7.7,7.7,0,0,0,371.66,257.75Z"/><path class="cls-5" d="M447.73,129.35q3.45-4.35,3.49-11.57,0-6.94-3.38-11.17a17.55,17.55,0,0,0-9.3-5.83q-4.17-1.12-24.16-1.21l-23.32-.12-.18,36.85,22.09.1q20.25.1,25.77-1.3A16.35,16.35,0,0,0,447.73,129.35Z"/><path class="cls-5" d="M319.89,257.64a7.89,7.89,0,0,0-4.73,1.43,6.76,6.76,0,0,0-2.61,4h14Q325.38,257.65,319.89,257.64Z"/><path class="cls-5" d="M15.06,92.31q-5.1,0-7.55,2.22a7.49,7.49,0,0,0-2.44,5.82,7.6,7.6,0,0,0,2.46,5.86c1.64,1.51,4.19,2.26,7.63,2.26s5.91-.78,7.6-2.33a7.56,7.56,0,0,0,2.53-5.79,7.46,7.46,0,0,0-2.51-5.76Q20.26,92.31,15.06,92.31Z"/><path class="cls-5" d="M150.18,61q-7.45-2.85-31.56-2.86H99.9v69.79h21.25q21.42,0,29.11-3.19t12.61-11.49q4.92-8.3,4.92-20.38,0-12.24-5.08-20.63T150.18,61Z"/><path class="cls-5" d="M210.41,257.58a7.93,7.93,0,0,0-5.94,2.36,8.39,8.39,0,0,0-2.3,6.11,6.57,6.57,0,0,0,2.36,5,7.87,7.87,0,0,0,5.46,2.15,7.49,7.49,0,0,0,5.6-2.45,8.27,8.27,0,0,0,2.34-5.91,6.82,6.82,0,0,0-2.21-5.09A7.38,7.38,0,0,0,210.41,257.58Z"/><path class="cls-5" d="M11.46,164.75a3.77,3.77,0,0,0-2.35-.68,3.53,3.53,0,0,0-2.25.68,3.41,3.41,0,0,0-1.17,1.85,27.79,27.79,0,0,0-.22,4.78V176h7.45v-4.37a26.76,26.76,0,0,0-.29-5.1A3.27,3.27,0,0,0,11.46,164.75Z"/><path class="cls-5" d="M657.2,257.69a8,8,0,0,0-8,8,7.16,7.16,0,0,0,2.21,5.38,7.74,7.74,0,0,0,5.58,2.12,7.58,7.58,0,0,0,5.69-2.32,8.15,8.15,0,0,0,2.25-5.93,6.71,6.71,0,0,0-2.31-5.09A7.79,7.79,0,0,0,657.2,257.69Z"/><path class="cls-5" d="M721.78,258.55a8.51,8.51,0,0,0-5.88,2.13,6.57,6.57,0,0,0-2.39,5.08,6,6,0,0,0,2,4.71,7.75,7.75,0,0,0,5.34,1.76,9.16,9.16,0,0,0,6-1.92,6.29,6.29,0,0,0,2.31-5.07,6.2,6.2,0,0,0-2.09-4.78A7.61,7.61,0,0,0,721.78,258.55Z"/><path class="cls-6" d="M197.85,136.84q9.5-18,9.5-44.61,0-29.28-11-47.86T168.42,20.1q-10.6-3.51-45.1-3.51H61.6V261.94H99.9V169.39h25.16q34.82,0,49.06-7.28T197.85,136.84Zm-35-23.64q-4.92,8.31-12.61,11.49t-29.11,3.19H99.9V58.09h18.72q24.1,0,31.56,2.86t12.53,11.24q5.07,8.39,5.08,20.63Q167.79,104.9,162.87,113.2Z"/><polygon class="cls-6" points="143.03 276.42 148.16 276.42 153.74 241.34 148.61 241.34 143.03 276.42"/><path class="cls-6" d="M187,253.81q-3.8,0-8.57,4.9-.87-4.9-5.2-4.9a7.33,7.33,0,0,0-4,1.23,40.44,40.44,0,0,0-4.66,3.56l.69-4.24H160.1l-3.55,22.06h5.13l1.81-11.24a10,10,0,0,1,2.62-5.23,6.12,6.12,0,0,1,4.44-2.26c1.71,0,2.57.92,2.57,2.76a3.6,3.6,0,0,1-.06.8l-2.45,15.17h5.14l1.81-11.35a9.64,9.64,0,0,1,2.63-5.19,6.14,6.14,0,0,1,4.36-2.19c1.64,0,2.45.76,2.45,2.26a1,1,0,0,1-.06.44l-2.56,16h5.13l2.63-16a5.91,5.91,0,0,0,.06-.94,5.73,5.73,0,0,0-1.49-4.1A4.92,4.92,0,0,0,187,253.81Z"/><path class="cls-6" d="M211.91,253.81a13.63,13.63,0,0,0-7.9,3l.39-2.47h-5.13l-5.19,32.72h5.07l2.48-15.44q2.84,5.42,9.39,5.41a12,12,0,0,0,8.73-3.63,11.8,11.8,0,0,0,3.68-8.68,10.28,10.28,0,0,0-3.47-7.63A11.34,11.34,0,0,0,211.91,253.81Zm3.68,16.91a7.49,7.49,0,0,1-5.6,2.45,7.87,7.87,0,0,1-5.46-2.15,6.57,6.57,0,0,1-2.36-5,8.39,8.39,0,0,1,2.3-6.11,7.93,7.93,0,0,1,5.94-2.36,7.38,7.38,0,0,1,5.31,2.14,6.82,6.82,0,0,1,2.21,5.09A8.27,8.27,0,0,1,215.59,270.72Z"/><path class="cls-6" d="M236.34,254.39a7.64,7.64,0,0,0-2.67,2.34A18.06,18.06,0,0,0,232,259l.75-4.68h-5.19L224,276.42h5.13l1.7-10.49q.69-4.15,2.25-5.88a5.74,5.74,0,0,1,4.47-1.72,10.27,10.27,0,0,1,3.55.77l2.33-4.57a13.37,13.37,0,0,0-3.85-.72A7.73,7.73,0,0,0,236.34,254.39Z"/><path class="cls-6" d="M252,241.44a3.27,3.27,0,0,0-2.3.89,2.75,2.75,0,0,0-.95,2.12,2.82,2.82,0,0,0,.95,2.13,3.23,3.23,0,0,0,2.3.9,3.36,3.36,0,0,0,2.33-.88,2.85,2.85,0,0,0,.95-2.15,2.74,2.74,0,0,0-1-2.12A3.31,3.31,0,0,0,252,241.44Z"/><polygon class="cls-6" points="244.36 276.42 249.42 276.42 252.83 254.36 247.76 254.36 244.36 276.42"/><path class="cls-6" d="M287.11,253.81q-3.8,0-8.57,4.9-.87-4.9-5.19-4.9a7.31,7.31,0,0,0-4,1.23,39.6,39.6,0,0,0-4.66,3.56l.68-4.24h-5.13l-3.55,22.06h5.13l1.81-11.24a10,10,0,0,1,2.61-5.23,6.13,6.13,0,0,1,4.44-2.26q2.58,0,2.58,2.76a3.6,3.6,0,0,1-.06.8l-2.45,15.17h5.13l1.82-11.35a9.57,9.57,0,0,1,2.63-5.19,6.13,6.13,0,0,1,4.36-2.19c1.63,0,2.45.76,2.45,2.26a1,1,0,0,1-.06.44l-2.57,16h5.13l2.64-16a5.91,5.91,0,0,0,.06-.94,5.78,5.78,0,0,0-1.49-4.1A4.94,4.94,0,0,0,287.11,253.81Z"/><polygon class="cls-6" points="296.04 276.42 301.1 276.42 304.51 254.36 299.44 254.36 296.04 276.42"/><path class="cls-6" d="M303.68,241.44a3.27,3.27,0,0,0-2.3.89,2.75,2.75,0,0,0-.95,2.12,2.82,2.82,0,0,0,.95,2.13,3.23,3.23,0,0,0,2.3.9,3.36,3.36,0,0,0,2.33-.88,2.81,2.81,0,0,0,.95-2.15,2.74,2.74,0,0,0-1-2.12A3.29,3.29,0,0,0,303.68,241.44Z"/><path class="cls-6" d="M320.25,253.81a12.9,12.9,0,0,0-9.14,3.53,11.28,11.28,0,0,0-3.76,8.53,10.42,10.42,0,0,0,3.42,8,13.45,13.45,0,0,0,18.59-1.26l-2.93-2.73q-3.65,3.49-6.9,3.5a7.19,7.19,0,0,1-5-1.76,7.91,7.91,0,0,1-2.31-5.1h19a17.42,17.42,0,0,0,.12-2.09,10.11,10.11,0,0,0-3.23-7.55A10.83,10.83,0,0,0,320.25,253.81Zm-7.7,9.25a6.76,6.76,0,0,1,2.61-4,7.89,7.89,0,0,1,4.73-1.43q5.49,0,6.66,5.42Z"/><path class="cls-6" d="M349.66,253.81a9,9,0,0,0-4.38,1.1,23,23,0,0,0-4.37,3.36l.56-3.91H336.4l-3.49,22.06H338l1.44-9.09a14.41,14.41,0,0,1,2.9-7,6.32,6.32,0,0,1,4.94-2.65,3.81,3.81,0,0,1,2.8,1.05,3.66,3.66,0,0,1,1.06,2.73,4.87,4.87,0,0,1-.06.91l-2.27,14h5l2.51-15.17a6.15,6.15,0,0,0,.06-1,6.06,6.06,0,0,0-2.06-4.49A6.53,6.53,0,0,0,349.66,253.81Z"/><path class="cls-6" d="M380,259.17a9.84,9.84,0,0,0-9.1-5.36,12.79,12.79,0,0,0-9,3.5,11.44,11.44,0,0,0,7.67,19.74,10,10,0,0,0,4-.74,20.28,20.28,0,0,0,3.92-2.37l-.31,2.48h5l6-36.6h-5.07Zm-2.95,11.74a7.68,7.68,0,0,1-5.66,2.4,7.81,7.81,0,0,1-5.54-2.14A6.83,6.83,0,0,1,363.6,266a8.06,8.06,0,0,1,2.33-5.85,8.06,8.06,0,0,1,11.22-.21,6.9,6.9,0,0,1,2.3,5.21A7.9,7.9,0,0,1,377.08,270.91Z"/><path class="cls-6" d="M411,257.07a13.16,13.16,0,0,0-9.05-3.2,13.36,13.36,0,0,0-9.33,3.52,11.1,11.1,0,0,0-3.86,8.48,10.08,10.08,0,0,0,3.55,7.95,13.4,13.4,0,0,0,9.11,3.1,13.6,13.6,0,0,0,9.43-3.38,10.89,10.89,0,0,0,3.76-8.47A10.26,10.26,0,0,0,411,257.07Zm-3.78,13.24a9.13,9.13,0,0,1-6,1.92,7.79,7.79,0,0,1-5.35-1.76,6,6,0,0,1-2-4.71,6.61,6.61,0,0,1,2.39-5.08,8.51,8.51,0,0,1,5.88-2.13,7.66,7.66,0,0,1,5.35,1.91,6.61,6.61,0,0,1-.23,9.85Z"/><polygon class="cls-6" points="445.7 244.5 440.63 244.5 439.02 254.36 435.26 254.36 434.57 258.71 438.32 258.71 435.43 276.42 440.56 276.42 443.41 258.71 447.85 258.71 448.51 254.36 444.11 254.36 445.7 244.5"/><polygon class="cls-6" points="463.62 249.51 471.56 241.97 464.72 241.97 459.14 249.51 463.62 249.51"/><path class="cls-6" d="M464.9,268.08a4.75,4.75,0,0,1-2.07,3.14,7,7,0,0,1-4.17,1.26q-4.5,0-4.5-3.33l.06-.74,2.38-14.05h-5.13l-1.8,11c0,.16-.11.65-.28,1.47a14.79,14.79,0,0,0-.25,3,6.37,6.37,0,0,0,2.64,5.12,9.86,9.86,0,0,0,6.4,2.12,12.79,12.79,0,0,0,7.95-2.42,9.69,9.69,0,0,0,3.84-6.5l2.21-13.77h-5Z"/><polygon class="cls-6" points="492.1 276.42 497.23 276.42 502.81 241.34 497.68 241.34 492.1 276.42"/><path class="cls-6" d="M536,253.81q-3.79,0-8.57,4.9-.87-4.9-5.2-4.9a7.36,7.36,0,0,0-4,1.23,40.46,40.46,0,0,0-4.65,3.56l.68-4.24h-5.13l-3.55,22.06h5.13l1.81-11.24a10,10,0,0,1,2.61-5.23,6.13,6.13,0,0,1,4.44-2.26c1.72,0,2.57.92,2.57,2.76a3.6,3.6,0,0,1-.06.8l-2.44,15.17h5.13l1.82-11.35a9.57,9.57,0,0,1,2.63-5.19,6.11,6.11,0,0,1,4.36-2.19c1.63,0,2.45.76,2.45,2.26a1,1,0,0,1-.06.44l-2.57,16h5.13l2.64-16a5.91,5.91,0,0,0,.06-.94,5.74,5.74,0,0,0-1.5-4.1A4.91,4.91,0,0,0,536,253.81Z"/><path class="cls-6" d="M566,259.16a10.27,10.27,0,0,0-9.28-5.35,12.38,12.38,0,0,0-8.78,3.47,11,11,0,0,0-3.68,8.32,10.83,10.83,0,0,0,3.51,8,11.41,11.41,0,0,0,15.83.41l-.39,2.36h5.14l3.49-22.06h-5.07Zm-2.77,11.69a7.58,7.58,0,0,1-5.69,2.32,7.74,7.74,0,0,1-5.58-2.12,7.16,7.16,0,0,1-2.21-5.38,8,8,0,0,1,8-8,7.79,7.79,0,0,1,5.45,2.14,6.71,6.71,0,0,1,2.31,5.09A8.15,8.15,0,0,1,563.23,270.85Z"/><path class="cls-6" d="M597.65,259.41a7.78,7.78,0,0,0-3.45-4.07,10.37,10.37,0,0,0-5.48-1.53,13,13,0,0,0-9.1,3.51,11,11,0,0,0-3.81,8.39,10.73,10.73,0,0,0,3.45,8,11.51,11.51,0,0,0,8.29,3.33c2.41,0,5-1,7.64-3a9.51,9.51,0,0,1-2.93,6.5,9,9,0,0,1-6.35,2.4q-5.32,0-6.36-5.26h-4.66a9.24,9.24,0,0,0,3.76,7.06,12.36,12.36,0,0,0,7.32,2.36,14.76,14.76,0,0,0,9.25-3.21,12,12,0,0,0,4.87-7.72l3.49-21.79H598.5Zm-2.86,11.4a8,8,0,0,1-5.84,2.36,7.59,7.59,0,0,1-5.46-2.14,6.93,6.93,0,0,1-2.24-5.25,7.78,7.78,0,0,1,2.4-5.64,7.55,7.55,0,0,1,5.54-2.45,8,8,0,0,1,5.58,2.2,6.73,6.73,0,0,1,2.39,5.09A7.9,7.9,0,0,1,594.79,270.81Z"/><polygon class="cls-6" points="606.8 276.42 611.87 276.42 615.27 254.36 610.21 254.36 606.8 276.42"/><path class="cls-6" d="M614.45,241.44a3.27,3.27,0,0,0-2.3.89,2.76,2.76,0,0,0-1,2.12,2.83,2.83,0,0,0,1,2.13,3.23,3.23,0,0,0,2.3.9,3.36,3.36,0,0,0,2.33-.88,2.85,2.85,0,0,0,1-2.15,2.74,2.74,0,0,0-1-2.12A3.33,3.33,0,0,0,614.45,241.44Z"/><path class="cls-6" d="M634.87,253.81a8.89,8.89,0,0,0-4.37,1.1,22.74,22.74,0,0,0-4.38,3.36l.56-3.91h-5.07l-3.49,22.06h5.07l1.44-9.09a14.51,14.51,0,0,1,2.9-7,6.32,6.32,0,0,1,4.94-2.65,3.81,3.81,0,0,1,2.8,1.05,3.66,3.66,0,0,1,1.06,2.73,4.87,4.87,0,0,1-.06.91l-2.27,14h5l2.52-15.17a6.36,6.36,0,0,0,.05-1,6.09,6.09,0,0,0-2.05-4.49A6.57,6.57,0,0,0,634.87,253.81Z"/><path class="cls-6" d="M665.47,259.16a10.25,10.25,0,0,0-9.27-5.35,12.38,12.38,0,0,0-8.78,3.47,11,11,0,0,0-3.68,8.32,10.83,10.83,0,0,0,3.51,8,11.41,11.41,0,0,0,15.83.41l-.39,2.36h5.14l3.49-22.06h-5.07Zm-2.76,11.69a7.58,7.58,0,0,1-5.69,2.32,7.74,7.74,0,0,1-5.58-2.12,7.16,7.16,0,0,1-2.21-5.38,8,8,0,0,1,8-8,7.79,7.79,0,0,1,5.45,2.14,6.71,6.71,0,0,1,2.31,5.09A8.15,8.15,0,0,1,662.71,270.85Z"/><path class="cls-6" d="M678.06,257.18a10.78,10.78,0,0,0-3.63,8.2,11.37,11.37,0,0,0,3.33,8.3,11,11,0,0,0,8.16,3.37,21.38,21.38,0,0,0,5.76-1.18l.9-5.59a16.68,16.68,0,0,1-6.66,2,6.12,6.12,0,0,1-4.55-2,6.79,6.79,0,0,1,.25-9.73,7.34,7.34,0,0,1,5.23-2.07q2.65,0,6.77,2.32l.81-5a16.65,16.65,0,0,0-7.64-2A12.37,12.37,0,0,0,678.06,257.18Z"/><path class="cls-6" d="M703.72,241.44a3.25,3.25,0,0,0-2.3.89,2.76,2.76,0,0,0-1,2.12,2.83,2.83,0,0,0,1,2.13,3.22,3.22,0,0,0,2.3.9,3.32,3.32,0,0,0,2.32-.88,2.82,2.82,0,0,0,1-2.15,2.74,2.74,0,0,0-1-2.12A3.33,3.33,0,0,0,703.72,241.44Z"/><polygon class="cls-6" points="696.07 276.42 701.14 276.42 704.54 254.36 699.48 254.36 696.07 276.42"/><path class="cls-6" d="M730.68,257.07a13.18,13.18,0,0,0-9-3.2,13.36,13.36,0,0,0-9.33,3.52,11.08,11.08,0,0,0-3.87,8.48,10.08,10.08,0,0,0,3.56,7.95,13.37,13.37,0,0,0,9.1,3.1,13.63,13.63,0,0,0,9.44-3.38,10.92,10.92,0,0,0,3.76-8.47A10.29,10.29,0,0,0,730.68,257.07Zm-3.78,13.24a9.16,9.16,0,0,1-6,1.92,7.75,7.75,0,0,1-5.34-1.76,6,6,0,0,1-2-4.71,6.57,6.57,0,0,1,2.39-5.08,8.51,8.51,0,0,1,5.88-2.13,7.61,7.61,0,0,1,5.34,1.91,6.2,6.2,0,0,1,2.09,4.78A6.29,6.29,0,0,1,726.9,270.31Z"/><polygon class="cls-6" points="724.85 249.51 732.79 241.97 725.96 241.97 720.38 249.51 724.85 249.51"/><path class="cls-6" d="M758.14,255.79a6.53,6.53,0,0,0-4.65-2,8.93,8.93,0,0,0-4.38,1.1,23,23,0,0,0-4.37,3.36l.56-3.91h-5.07l-3.49,22.06h5.07l1.44-9.09a14.32,14.32,0,0,1,2.9-7,6.32,6.32,0,0,1,4.94-2.65,3.81,3.81,0,0,1,2.8,1.05,3.7,3.7,0,0,1,1.06,2.73,4.87,4.87,0,0,1-.06.91l-2.27,14h5l2.51-15.17a6.15,6.15,0,0,0,.06-1A6.06,6.06,0,0,0,758.14,255.79Z"/><rect class="cls-6" x="0.5" y="272.1" width="29.36" height="5.87"/><polygon class="cls-6" points="0.5 248.53 20.11 248.53 0.5 260.47 0.5 266.2 29.86 266.2 29.86 260.71 10.71 260.71 29.86 248.97 29.86 243.05 0.5 243.05 0.5 248.53"/><polygon class="cls-6" points="0.5 218.69 22.23 225.84 0.5 233.23 0.5 239.62 29.86 229.18 29.86 222.9 0.5 212.43 0.5 218.69"/><polygon class="cls-6" points="24.89 203.37 16.92 203.37 16.92 188.71 11.98 188.71 11.98 203.37 5.47 203.37 5.47 187.6 0.5 187.6 0.5 209.25 29.86 209.25 29.86 187.06 24.89 187.06 24.89 203.37"/><path class="cls-6" d="M17.93,171.81a4.56,4.56,0,0,1,1.2-1.74,40.64,40.64,0,0,1,4.34-3.13l6.39-4.26v-7l-5.73,3.54a34,34,0,0,0-4.78,3.38,14.13,14.13,0,0,0-2.45,3.13A9.47,9.47,0,0,0,14.26,160a7.69,7.69,0,0,0-5.55-2A8.21,8.21,0,0,0,4,159.31a7.07,7.07,0,0,0-2.75,3.35,20.9,20.9,0,0,0-.79,6.8v12.4H29.86V176H17.6v-1.21A9.65,9.65,0,0,1,17.93,171.81Zm-5,4.18H5.47v-4.61a27.79,27.79,0,0,1,.22-4.78,3.41,3.41,0,0,1,1.17-1.85,3.53,3.53,0,0,1,2.25-.68,3.77,3.77,0,0,1,2.35.68,3.27,3.27,0,0,1,1.17,1.77,26.76,26.76,0,0,1,.29,5.1Z"/><path class="cls-6" d="M21.33,130a9,9,0,0,0-4.5,1,8.1,8.1,0,0,0-3,3,24.88,24.88,0,0,0-2.23,6.42,18.77,18.77,0,0,1-1.8,5.36,2.41,2.41,0,0,1-2,1.17,2.37,2.37,0,0,1-2-1.29,6.75,6.75,0,0,1-.82-3.66,6.12,6.12,0,0,1,.94-3.67,4.91,4.91,0,0,1,3.3-1.67l-.26-5.9a8.39,8.39,0,0,0-6.59,3.06c-1.53,1.93-2.3,4.6-2.3,8a15,15,0,0,0,1,5.76,8.19,8.19,0,0,0,2.9,3.65,7.46,7.46,0,0,0,4.33,1.32,7.58,7.58,0,0,0,3.85-1A8.27,8.27,0,0,0,15,148.87a20.06,20.06,0,0,0,2-5.51,50.5,50.5,0,0,1,1.51-5.29,3.81,3.81,0,0,1,1.15-1.63,2.74,2.74,0,0,1,1.7-.53,3.46,3.46,0,0,1,2.85,1.53,6.82,6.82,0,0,1,1.15,4.2q0,5.38-5.62,6.36l.56,5.75q10.07-1.22,10.07-11.94,0-6.08-2.6-8.92A8.37,8.37,0,0,0,21.33,130Z"/><rect class="cls-6" x="0.5" y="119.18" width="29.36" height="5.87"/><path class="cls-6" d="M15.18,86.24Q7.89,86.24,4,90.18A13.81,13.81,0,0,0,0,100.39a15.18,15.18,0,0,0,1.66,7.35,12.51,12.51,0,0,0,5.06,4.92,17.72,17.72,0,0,0,8.64,1.88q7.23,0,11.37-4.18,3.63-3.66,3.63-10t-3.67-10Q22.55,86.24,15.18,86.24Zm7.58,19.9q-2.53,2.33-7.6,2.33c-3.44,0-6-.75-7.63-2.26a7.6,7.6,0,0,1-2.46-5.86,7.49,7.49,0,0,1,2.44-5.82q2.45-2.22,7.55-2.22t7.72,2.28a7.46,7.46,0,0,1,2.51,5.76A7.56,7.56,0,0,1,22.76,106.14Z"/><polygon class="cls-6" points="29.86 58.2 0.5 58.2 0.5 63.68 20.1 63.68 0.5 75.63 0.5 81.35 29.86 81.35 29.86 75.87 10.71 75.87 29.86 64.12 29.86 58.2"/><polygon class="cls-6" points="29.86 29.6 24.89 29.6 24.89 45.91 16.92 45.91 16.92 31.25 11.97 31.25 11.97 45.91 5.47 45.91 5.47 30.13 0.5 30.13 0.5 51.78 29.86 51.78 29.86 29.6"/><path class="cls-6" d="M3.88,23.51A7.39,7.39,0,0,0,8.2,24.84a7.7,7.7,0,0,0,3.86-1A8.36,8.36,0,0,0,15,21a20.33,20.33,0,0,0,2-5.51,51,51,0,0,1,1.51-5.3A3.77,3.77,0,0,1,19.65,8.6a2.68,2.68,0,0,1,1.7-.54A3.46,3.46,0,0,1,24.2,9.59a6.82,6.82,0,0,1,1.15,4.2q0,5.38-5.63,6.36l.57,5.75Q30.36,24.7,30.36,14c0-4-.87-7-2.61-8.92a8.34,8.34,0,0,0-6.42-2.85,9.13,9.13,0,0,0-4.5,1,8.25,8.25,0,0,0-3,3,24.88,24.88,0,0,0-2.23,6.42A19,19,0,0,1,9.78,18a2.4,2.4,0,0,1-2,1.16,2.38,2.38,0,0,1-2-1.28,6.91,6.91,0,0,1-.81-3.67,6.11,6.11,0,0,1,.94-3.66,4.88,4.88,0,0,1,3.3-1.68L8.89,3A8.4,8.4,0,0,0,2.3,6.07Q0,9,0,14.11a14.91,14.91,0,0,0,1,5.75A8.13,8.13,0,0,0,3.88,23.51Z"/><polygon class="cls-6" points="334.61 195.25 252.15 194.84 252.34 155.42 326.46 155.79 326.58 131.32 252.46 130.96 252.62 98.77 332.38 99.16 332.5 74.6 223.05 74.06 222.34 219.26 334.49 219.81 334.61 195.25"/><polygon class="cls-6" points="306.93 35.15 275.06 34.99 261.01 64.54 278.97 64.63 306.93 35.15"/><path class="cls-6" d="M457.77,220.42l35.53.18-17.78-28.42q-10.71-17.09-16.94-23.71a70.31,70.31,0,0,0-15.77-12.21q18.66-2.58,28.84-12.93T481.91,116q.06-13.47-6.51-23.16a35.62,35.62,0,0,0-16.87-13.66q-10.29-4-34.34-4.08l-62.7-.31-.71,145.2,29.69.15.3-60.62,6.13,0q10.31.06,15,1.71a23,23,0,0,1,8.8,6q4.15,4.32,15.7,21.52Zm-44.8-84-22.09-.1.18-36.85,23.32.12q20,.09,24.16,1.21a17.55,17.55,0,0,1,9.3,5.83q3.42,4.23,3.38,11.17,0,7.23-3.49,11.57a16.35,16.35,0,0,1-9,5.75Q433.22,136.51,413,136.4Z"/><polygon class="cls-6" points="622.78 196.67 540.32 196.26 540.51 156.84 614.63 157.21 614.75 132.75 540.63 132.38 540.79 100.19 620.55 100.58 620.67 76.02 511.21 75.48 510.5 220.68 622.66 221.24 622.78 196.67"/><polygon class="cls-6" points="756.07 197.33 672.14 196.92 753.35 99.46 753.47 76.68 645.48 76.14 645.36 100.71 714.13 101.05 636.19 194.76 636.06 221.3 755.95 221.89 756.07 197.33"/></g></g></svg>