<svg xmlns="http://www.w3.org/2000/svg" viewBox="0 0 842.64 520.78"><defs><style>.cls-1{fill:#1d1d1b;stroke:#010101;}.cls-1,.cls-5{stroke-miterlimit:10;stroke-width:0.75px;}.cls-2{fill:#f4e600;}.cls-3{fill:#d42185;}.cls-4{fill:#2dabe3;}.cls-5,.cls-6{fill:none;}.cls-5{stroke:#fff;}.cls-7{fill:#fff;}</style></defs><g id="Capa_2" data-name="Capa 2"><g id="Capa_1-2" data-name="Capa 1"><rect class="cls-1" x="0.38" y="0.38" width="841.89" height="520.03"/><path class="cls-2" d="M167.52,300.13H236.4a22.68,22.68,0,0,0,22.68-22.68V209.84H167.52Z"/><path class="cls-3" d="M236.68,106.64H167.24v90.42h92.11V129.32A22.67,22.67,0,0,0,236.68,106.64Z"/><rect class="cls-4" x="79.86" y="106.64" width="78.42" height="270.4"/><rect class="cls-5" x="70.88" y="117.01" width="78.42" height="270.4"/><path class="cls-5" d="M158.28,117h91.57a0,0,0,0,1,0,0v89a0,0,0,0,1,0,0H181a22.68,22.68,0,0,1-22.68-22.68V117A0,0,0,0,1,158.28,117Z" transform="translate(408.13 323.04) rotate(180)"/><path class="cls-5" d="M158.92,218h90.29a0,0,0,0,1,0,0v91.57a0,0,0,0,1,0,0H181.6a22.68,22.68,0,0,1-22.68-22.68V218A0,0,0,0,1,158.92,218Z" transform="translate(-59.69 467.82) rotate(-90)"/><path class="cls-6" d="M592.22,364.33a8,8,0,0,0-8,8,7.09,7.09,0,0,0,2.21,5.37,7.71,7.71,0,0,0,5.58,2.13,7.6,7.6,0,0,0,5.69-2.32,8.15,8.15,0,0,0,2.25-5.93,6.71,6.71,0,0,0-2.31-5.09A7.81,7.81,0,0,0,592.22,364.33Z"/><path class="cls-6" d="M493.61,247.47q3.47-4.33,3.5-11.57,0-6.93-3.39-11.16a17.55,17.55,0,0,0-9.29-5.84q-4.17-1.11-24.17-1.21l-23.32-.11-.18,36.84,22.09.11q20.25.1,25.78-1.31A16.22,16.22,0,0,0,493.61,247.47Z"/><path class="cls-6" d="M49.56,198.94c-3.41,0-5.92.75-7.55,2.23A7.49,7.49,0,0,0,39.56,207,7.57,7.57,0,0,0,42,212.85q2.46,2.27,7.63,2.26c3.37,0,5.91-.78,7.6-2.33A7.59,7.59,0,0,0,59.79,207a7.46,7.46,0,0,0-2.51-5.76C55.6,199.71,53,198.94,49.56,198.94Z"/><path class="cls-6" d="M46,271.39a3.76,3.76,0,0,0-2.34-.68,3.28,3.28,0,0,0-3.43,2.52A29.12,29.12,0,0,0,40,278v4.61h7.45v-4.37a25.9,25.9,0,0,0-.29-5.1A3.17,3.17,0,0,0,46,271.39Z"/><path class="cls-6" d="M629.27,366.53a8,8,0,0,0-5.58-2.2,7.58,7.58,0,0,0-5.54,2.44,7.83,7.83,0,0,0-2.41,5.65,7,7,0,0,0,2.24,5.25,7.63,7.63,0,0,0,5.47,2.14,8.09,8.09,0,0,0,8.21-8.19A6.72,6.72,0,0,0,629.27,366.53Z"/><path class="cls-6" d="M244.91,364.22a7.93,7.93,0,0,0-5.94,2.36,8.35,8.35,0,0,0-2.3,6.11,6.54,6.54,0,0,0,2.36,5,7.87,7.87,0,0,0,5.46,2.15,7.48,7.48,0,0,0,5.6-2.46,8.23,8.23,0,0,0,2.34-5.9,6.86,6.86,0,0,0-2.21-5.09A7.34,7.34,0,0,0,244.91,364.22Z"/><path class="cls-6" d="M436.58,365.19a8.51,8.51,0,0,0-5.88,2.13,6.61,6.61,0,0,0-2.39,5.08,6,6,0,0,0,2,4.71,7.76,7.76,0,0,0,5.34,1.76A9.16,9.16,0,0,0,441.7,377a6.29,6.29,0,0,0,2.31-5.07,6.2,6.2,0,0,0-2.09-4.78A7.57,7.57,0,0,0,436.58,365.19Z"/><path class="cls-6" d="M406.16,364.39a7.68,7.68,0,0,0-5.73,2.38,8,8,0,0,0-2.33,5.85,6.83,6.83,0,0,0,2.28,5.19,7.79,7.79,0,0,0,5.54,2.14,7.7,7.7,0,0,0,5.66-2.4,7.92,7.92,0,0,0,2.37-5.78,6.94,6.94,0,0,0-2.3-5.21A7.7,7.7,0,0,0,406.16,364.39Z"/><path class="cls-6" d="M184.34,167.05q-7.46-2.85-31.56-2.85H134.06V234h21.25q21.42,0,29.11-3.19T197,219.31Q202,211,202,198.93q0-12.26-5.08-20.64T184.34,167.05Z"/><path class="cls-6" d="M691.7,364.33a8,8,0,0,0-8,8,7.09,7.09,0,0,0,2.21,5.37,7.71,7.71,0,0,0,5.58,2.13,7.6,7.6,0,0,0,5.69-2.32,8.15,8.15,0,0,0,2.25-5.93,6.71,6.71,0,0,0-2.31-5.09A7.81,7.81,0,0,0,691.7,364.33Z"/><path class="cls-6" d="M354.39,364.28a7.89,7.89,0,0,0-4.73,1.43,6.7,6.7,0,0,0-2.62,4h14Q359.88,364.29,354.39,364.28Z"/><path class="cls-6" d="M756.28,365.19a8.55,8.55,0,0,0-5.89,2.13A6.6,6.6,0,0,0,748,372.4a5.93,5.93,0,0,0,2,4.71,7.75,7.75,0,0,0,5.34,1.76,9.18,9.18,0,0,0,6-1.92,6.29,6.29,0,0,0,2.31-5.07,6.23,6.23,0,0,0-2.09-4.78A7.58,7.58,0,0,0,756.28,365.19Z"/><rect class="cls-7" x="35" y="378.74" width="29.36" height="5.87"/><polygon class="cls-7" points="35 355.17 54.6 355.17 35 367.11 35 372.84 64.36 372.84 64.36 367.36 45.21 367.36 64.36 355.61 64.36 349.68 35 349.68 35 355.17"/><polygon class="cls-7" points="35 325.33 56.73 332.48 35 339.87 35 346.26 64.36 335.82 64.36 329.53 35 319.07 35 325.33"/><polygon class="cls-7" points="59.39 310.01 51.42 310.01 51.42 295.35 46.47 295.35 46.47 310.01 39.97 310.01 39.97 294.24 35 294.24 35 315.89 64.36 315.89 64.36 293.7 59.39 293.7 59.39 310.01"/><path class="cls-7" d="M52.43,278.45a4.56,4.56,0,0,1,1.2-1.74A40.64,40.64,0,0,1,58,273.58l6.38-4.27v-7l-5.72,3.54a35,35,0,0,0-4.78,3.37,13.91,13.91,0,0,0-2.45,3.14,9.52,9.52,0,0,0-2.64-5.7,7.76,7.76,0,0,0-5.55-2A8.22,8.22,0,0,0,38.53,266a7.1,7.1,0,0,0-2.74,3.35,20.62,20.62,0,0,0-.79,6.8v12.4H64.35v-5.87H52.1v-1.22A9.62,9.62,0,0,1,52.43,278.45Zm-5,4.18H40V278a29.12,29.12,0,0,1,.22-4.79,3.28,3.28,0,0,1,3.43-2.52,3.76,3.76,0,0,1,2.34.68,3.17,3.17,0,0,1,1.17,1.77,25.9,25.9,0,0,1,.29,5.1Z"/><path class="cls-7" d="M55.83,236.67a9,9,0,0,0-4.5,1.05,8.1,8.1,0,0,0-3,3,24.68,24.68,0,0,0-2.24,6.42,18.38,18.38,0,0,1-1.8,5.36,2.28,2.28,0,0,1-4.05-.12,6.87,6.87,0,0,1-.82-3.66,6.2,6.2,0,0,1,.94-3.67,4.92,4.92,0,0,1,3.31-1.67l-.26-5.9a8.37,8.37,0,0,0-6.59,3.06q-2.29,2.88-2.3,8a14.81,14.81,0,0,0,1,5.76,8.13,8.13,0,0,0,2.9,3.65,7.45,7.45,0,0,0,4.32,1.32,7.56,7.56,0,0,0,3.85-1,8.11,8.11,0,0,0,2.89-2.78,19.43,19.43,0,0,0,2-5.51A53.27,53.27,0,0,1,53,244.71a3.9,3.9,0,0,1,1.15-1.63,2.78,2.78,0,0,1,1.7-.53,3.46,3.46,0,0,1,2.86,1.53,6.82,6.82,0,0,1,1.15,4.2q0,5.39-5.63,6.36l.56,5.75q10.08-1.22,10.07-11.94c0-4-.86-7-2.6-8.92A8.33,8.33,0,0,0,55.83,236.67Z"/><rect class="cls-7" x="35" y="225.82" width="29.36" height="5.87"/><path class="cls-7" d="M49.68,192.88q-7.29,0-11.24,3.94A13.81,13.81,0,0,0,34.5,207a15.06,15.06,0,0,0,1.66,7.35,12.51,12.51,0,0,0,5.06,4.92,17.72,17.72,0,0,0,8.64,1.88q7.23,0,11.37-4.18,3.63-3.66,3.62-10t-3.66-9.95Q57.05,192.88,49.68,192.88Zm7.58,19.9c-1.69,1.55-4.23,2.33-7.6,2.33s-6-.75-7.63-2.26A7.57,7.57,0,0,1,39.56,207,7.49,7.49,0,0,1,42,201.17c1.63-1.48,4.14-2.23,7.55-2.23s6,.77,7.72,2.29A7.46,7.46,0,0,1,59.79,207,7.59,7.59,0,0,1,57.26,212.78Z"/><polygon class="cls-7" points="64.35 164.84 35 164.84 35 170.32 54.6 170.32 35 182.26 35 187.99 64.35 187.99 64.35 182.51 45.21 182.51 64.35 170.76 64.35 164.84"/><polygon class="cls-7" points="64.35 136.24 59.39 136.24 59.39 152.55 51.42 152.55 51.42 137.89 46.47 137.89 46.47 152.55 39.96 152.55 39.96 136.77 35 136.77 35 158.42 64.35 158.42 64.35 136.24"/><path class="cls-7" d="M38.38,130.15a7.45,7.45,0,0,0,4.32,1.32,7.56,7.56,0,0,0,3.85-1,8,8,0,0,0,2.89-2.78,19.43,19.43,0,0,0,2-5.51A53.27,53.27,0,0,1,53,116.86a3.8,3.8,0,0,1,1.15-1.62,2.72,2.72,0,0,1,1.7-.54,3.46,3.46,0,0,1,2.86,1.53,6.89,6.89,0,0,1,1.15,4.2q0,5.38-5.63,6.36l.56,5.75q10.08-1.22,10.07-11.94c0-4-.86-7-2.6-8.92a8.36,8.36,0,0,0-6.43-2.85,9.06,9.06,0,0,0-4.49,1,8.1,8.1,0,0,0-3,3,24.82,24.82,0,0,0-2.24,6.42,18.36,18.36,0,0,1-1.8,5.37,2.29,2.29,0,0,1-4.05-.12,6.91,6.91,0,0,1-.82-3.67,6.16,6.16,0,0,1,.94-3.66,4.88,4.88,0,0,1,3.31-1.68l-.26-5.9a8.44,8.44,0,0,0-6.59,3.06c-1.54,1.93-2.3,4.61-2.3,8a14.72,14.72,0,0,0,1,5.75A8.13,8.13,0,0,0,38.38,130.15Z"/><polygon class="cls-7" points="177.52 383.06 182.65 383.06 188.24 347.97 183.11 347.97 177.52 383.06"/><path class="cls-7" d="M221.44,360.45q-3.8,0-8.57,4.9-.87-4.91-5.19-4.9a7.31,7.31,0,0,0-4,1.23,39.6,39.6,0,0,0-4.66,3.56l.68-4.24H194.6l-3.55,22.06h5.13L198,371.82a10,10,0,0,1,2.62-5.23,6.1,6.1,0,0,1,4.44-2.26c1.71,0,2.57.92,2.57,2.76a3.6,3.6,0,0,1-.06.8l-2.45,15.17h5.13l1.82-11.35a9.57,9.57,0,0,1,2.63-5.19,6.13,6.13,0,0,1,4.36-2.19c1.63,0,2.45.76,2.45,2.26a1,1,0,0,1-.06.44l-2.57,16H224l2.64-16a5.91,5.91,0,0,0,.06-.94,5.78,5.78,0,0,0-1.49-4.1A4.93,4.93,0,0,0,221.44,360.45Z"/><path class="cls-7" d="M246.4,360.45a13.68,13.68,0,0,0-7.9,3l.4-2.47h-5.13l-5.19,32.72h5.07l2.47-15.44q2.85,5.42,9.39,5.41a12,12,0,0,0,8.73-3.63,11.77,11.77,0,0,0,3.68-8.68,10.24,10.24,0,0,0-3.47-7.63A11.33,11.33,0,0,0,246.4,360.45Zm3.69,16.9a7.48,7.48,0,0,1-5.6,2.46,7.87,7.87,0,0,1-5.46-2.15,6.54,6.54,0,0,1-2.36-5,8.35,8.35,0,0,1,2.3-6.11,7.93,7.93,0,0,1,5.94-2.36,7.34,7.34,0,0,1,5.31,2.14,6.86,6.86,0,0,1,2.21,5.09A8.23,8.23,0,0,1,250.09,377.35Z"/><path class="cls-7" d="M270.83,361a7.82,7.82,0,0,0-2.67,2.34,17.91,17.91,0,0,0-1.67,2.31l.75-4.68H262l-3.55,22.06h5.13l1.71-10.49q.68-4.17,2.25-5.88A5.71,5.71,0,0,1,272,365a10.31,10.31,0,0,1,3.56.77l2.33-4.57a13.43,13.43,0,0,0-3.86-.72A7.8,7.8,0,0,0,270.83,361Z"/><polygon class="cls-7" points="278.85 383.06 283.92 383.06 287.32 361 282.26 361 278.85 383.06"/><path class="cls-7" d="M286.5,348.08a3.25,3.25,0,0,0-2.3.89,2.76,2.76,0,0,0-1,2.12,2.83,2.83,0,0,0,1,2.13,3.22,3.22,0,0,0,2.3.9,3.28,3.28,0,0,0,2.32-.89,2.79,2.79,0,0,0,1-2.14,2.74,2.74,0,0,0-1-2.12A3.33,3.33,0,0,0,286.5,348.08Z"/><path class="cls-7" d="M321.61,360.45q-3.8,0-8.57,4.9-.87-4.91-5.2-4.9a7.36,7.36,0,0,0-4,1.23,41.33,41.33,0,0,0-4.66,3.56l.69-4.24h-5.13l-3.56,22.06h5.13l1.81-11.24a10.06,10.06,0,0,1,2.62-5.23,6.13,6.13,0,0,1,4.44-2.26c1.72,0,2.57.92,2.57,2.76a3.6,3.6,0,0,1-.06.8l-2.45,15.17h5.14l1.82-11.35a9.56,9.56,0,0,1,2.62-5.19,6.15,6.15,0,0,1,4.37-2.19c1.63,0,2.45.76,2.45,2.26a1.25,1.25,0,0,1-.06.44l-2.57,16h5.13l2.64-16a7.39,7.39,0,0,0,.06-.94,5.74,5.74,0,0,0-1.5-4.1A4.91,4.91,0,0,0,321.61,360.45Z"/><path class="cls-7" d="M338.18,348.08a3.25,3.25,0,0,0-2.3.89,2.76,2.76,0,0,0-1,2.12,2.83,2.83,0,0,0,1,2.13,3.22,3.22,0,0,0,2.3.9,3.32,3.32,0,0,0,2.33-.89,2.81,2.81,0,0,0,.95-2.14,2.74,2.74,0,0,0-1-2.12A3.33,3.33,0,0,0,338.18,348.08Z"/><polygon class="cls-7" points="330.53 383.06 335.6 383.06 339 361 333.94 361 330.53 383.06"/><path class="cls-7" d="M354.75,360.45a12.87,12.87,0,0,0-9.14,3.52,11.27,11.27,0,0,0-3.76,8.54,10.42,10.42,0,0,0,3.42,8,13.44,13.44,0,0,0,18.58-1.26l-2.92-2.73q-3.65,3.49-6.9,3.5a7.17,7.17,0,0,1-5-1.76,7.86,7.86,0,0,1-2.31-5.1h18.95a17.42,17.42,0,0,0,.12-2.09,10.1,10.1,0,0,0-3.22-7.55A10.83,10.83,0,0,0,354.75,360.45ZM347,369.7a6.7,6.7,0,0,1,2.62-4,7.89,7.89,0,0,1,4.73-1.43q5.49,0,6.66,5.42Z"/><path class="cls-7" d="M384.15,360.45a8.89,8.89,0,0,0-4.37,1.1,23,23,0,0,0-4.37,3.36L376,361H370.9l-3.49,22.06h5.06l1.44-9.09a14.5,14.5,0,0,1,2.91-7,6.33,6.33,0,0,1,4.94-2.64,3.8,3.8,0,0,1,2.79,1.05,3.66,3.66,0,0,1,1.07,2.72,4.73,4.73,0,0,1-.06.91l-2.27,14.05h5l2.51-15.17a6.16,6.16,0,0,0-2-5.46A6.55,6.55,0,0,0,384.15,360.45Z"/><path class="cls-7" d="M414.53,365.81a9.84,9.84,0,0,0-9.1-5.36,12.77,12.77,0,0,0-9,3.5,11.44,11.44,0,0,0,7.66,19.74,10.12,10.12,0,0,0,4-.74,20.53,20.53,0,0,0,3.93-2.37l-.31,2.48h5l6-36.6h-5.07Zm-2.95,11.74a7.7,7.7,0,0,1-5.66,2.4,7.79,7.79,0,0,1-5.54-2.14,6.83,6.83,0,0,1-2.28-5.19,8,8,0,0,1,2.33-5.85,8.06,8.06,0,0,1,11.22-.21,6.94,6.94,0,0,1,2.3,5.21A7.92,7.92,0,0,1,411.58,377.55Z"/><path class="cls-7" d="M445.48,363.71a13.13,13.13,0,0,0-9.05-3.21A13.37,13.37,0,0,0,427.1,364a11.07,11.07,0,0,0-3.86,8.48,10.08,10.08,0,0,0,3.55,7.95,13.37,13.37,0,0,0,9.1,3.1,13.63,13.63,0,0,0,9.44-3.38,10.89,10.89,0,0,0,3.76-8.47A10.29,10.29,0,0,0,445.48,363.71ZM441.7,377a9.16,9.16,0,0,1-6.05,1.92,7.76,7.76,0,0,1-5.34-1.76,6,6,0,0,1-2-4.71,6.61,6.61,0,0,1,2.39-5.08,8.51,8.51,0,0,1,5.88-2.13,7.57,7.57,0,0,1,5.34,1.91,6.2,6.2,0,0,1,2.09,4.78A6.29,6.29,0,0,1,441.7,377Z"/><polygon class="cls-7" points="480.2 351.14 475.12 351.14 473.52 361 469.76 361 469.06 365.35 472.81 365.35 469.93 383.06 475.06 383.06 477.91 365.35 482.35 365.35 483.01 361 478.61 361 480.2 351.14"/><polygon class="cls-7" points="506.05 348.61 499.22 348.61 493.63 356.15 498.11 356.15 506.05 348.61"/><path class="cls-7" d="M499.4,374.72a4.69,4.69,0,0,1-2.08,3.13,6.93,6.93,0,0,1-4.16,1.27c-3,0-4.51-1.11-4.51-3.33l.06-.74L491.1,361H486l-1.79,11c0,.16-.11.65-.28,1.47a14.72,14.72,0,0,0-.26,3,6.37,6.37,0,0,0,2.64,5.12,9.88,9.88,0,0,0,6.41,2.12,12.79,12.79,0,0,0,7.95-2.42,9.68,9.68,0,0,0,3.83-6.5L506.68,361h-5Z"/><polygon class="cls-7" points="526.6 383.06 531.73 383.06 537.31 347.97 532.18 347.97 526.6 383.06"/><path class="cls-7" d="M570.52,360.45q-3.79,0-8.57,4.9-.87-4.91-5.2-4.9a7.33,7.33,0,0,0-4,1.23,40.44,40.44,0,0,0-4.66,3.56l.69-4.24h-5.14l-3.55,22.06h5.13l1.81-11.24a10,10,0,0,1,2.62-5.23,6.1,6.1,0,0,1,4.44-2.26c1.71,0,2.57.92,2.57,2.76a3.6,3.6,0,0,1-.06.8l-2.45,15.17h5.14l1.81-11.35a9.64,9.64,0,0,1,2.63-5.19,6.14,6.14,0,0,1,4.36-2.19c1.64,0,2.45.76,2.45,2.26a1,1,0,0,1-.06.44l-2.56,16h5.13l2.63-16a5.91,5.91,0,0,0,.06-.94,5.73,5.73,0,0,0-1.49-4.1A4.92,4.92,0,0,0,570.52,360.45Z"/><path class="cls-7" d="M600.49,365.8a10.27,10.27,0,0,0-9.27-5.35,12.36,12.36,0,0,0-8.78,3.47,11,11,0,0,0-3.69,8.32,10.82,10.82,0,0,0,3.52,8.05,11.5,11.5,0,0,0,8.29,3.4,11.36,11.36,0,0,0,7.53-3l-.38,2.37h5.13l3.5-22.06h-5.08Zm-2.76,11.69a7.6,7.6,0,0,1-5.69,2.32,7.71,7.71,0,0,1-5.58-2.13,7.09,7.09,0,0,1-2.21-5.37,8,8,0,0,1,8-8,7.81,7.81,0,0,1,5.45,2.14,6.71,6.71,0,0,1,2.31,5.09A8.15,8.15,0,0,1,597.73,377.49Z"/><path class="cls-7" d="M632.15,366.05A7.83,7.83,0,0,0,628.7,362a10.37,10.37,0,0,0-5.48-1.53,13,13,0,0,0-9.1,3.51,11,11,0,0,0-3.81,8.39,10.73,10.73,0,0,0,3.45,8,11.5,11.5,0,0,0,8.28,3.33q3.62,0,7.65-3a9.51,9.51,0,0,1-2.93,6.49,9,9,0,0,1-6.36,2.41q-5.31,0-6.36-5.26h-4.65a9.21,9.21,0,0,0,3.76,7.06,12.33,12.33,0,0,0,7.31,2.36,14.77,14.77,0,0,0,9.26-3.21,12,12,0,0,0,4.86-7.72l3.5-21.79H633Zm-2.87,11.4a8,8,0,0,1-5.83,2.36,7.63,7.63,0,0,1-5.47-2.14,7,7,0,0,1-2.24-5.25,7.83,7.83,0,0,1,2.41-5.65,7.58,7.58,0,0,1,5.54-2.44,8,8,0,0,1,5.58,2.2,6.72,6.72,0,0,1,2.39,5.09A7.87,7.87,0,0,1,629.28,377.45Z"/><polygon class="cls-7" points="641.3 383.06 646.37 383.06 649.77 361 644.7 361 641.3 383.06"/><path class="cls-7" d="M648.94,348.08a3.29,3.29,0,0,0-2.3.89,2.78,2.78,0,0,0-.95,2.12,2.85,2.85,0,0,0,.95,2.13,3.25,3.25,0,0,0,2.3.9,3.31,3.31,0,0,0,2.33-.89,2.83,2.83,0,0,0,0-4.26A3.33,3.33,0,0,0,648.94,348.08Z"/><path class="cls-7" d="M669.37,360.45a8.93,8.93,0,0,0-4.38,1.1,23,23,0,0,0-4.37,3.36l.56-3.91h-5.07l-3.49,22.06h5.07l1.44-9.09a14.4,14.4,0,0,1,2.9-7,6.33,6.33,0,0,1,4.94-2.64,3.83,3.83,0,0,1,2.8,1.05,3.69,3.69,0,0,1,1.06,2.72,4.73,4.73,0,0,1-.06.91l-2.27,14.05h5L676,367.89a6.16,6.16,0,0,0-2-5.46A6.53,6.53,0,0,0,669.37,360.45Z"/><path class="cls-7" d="M700,365.8a10.27,10.27,0,0,0-9.27-5.35,12.36,12.36,0,0,0-8.78,3.47,11,11,0,0,0-3.69,8.32,10.82,10.82,0,0,0,3.52,8.05,11.5,11.5,0,0,0,8.29,3.4,11.36,11.36,0,0,0,7.53-3l-.38,2.37h5.13L705.81,361h-5.07Zm-2.76,11.69a7.6,7.6,0,0,1-5.69,2.32,7.71,7.71,0,0,1-5.58-2.13,7.09,7.09,0,0,1-2.21-5.37,8,8,0,0,1,8-8,7.81,7.81,0,0,1,5.45,2.14,6.71,6.71,0,0,1,2.31,5.09A8.15,8.15,0,0,1,697.21,377.49Z"/><path class="cls-7" d="M712.55,363.82a10.77,10.77,0,0,0-3.62,8.2,11.36,11.36,0,0,0,3.32,8.3,11,11,0,0,0,8.17,3.37,21.52,21.52,0,0,0,5.76-1.18l.9-5.59a16.68,16.68,0,0,1-6.66,2,6.12,6.12,0,0,1-4.55-2,6.79,6.79,0,0,1,.25-9.73,7.3,7.3,0,0,1,5.22-2.07c1.78,0,4,.77,6.78,2.31l.81-5a16.69,16.69,0,0,0-7.65-2A12.36,12.36,0,0,0,712.55,363.82Z"/><polygon class="cls-7" points="730.57 383.06 735.64 383.06 739.04 361 733.97 361 730.57 383.06"/><path class="cls-7" d="M738.21,348.08a3.29,3.29,0,0,0-2.3.89,2.78,2.78,0,0,0-.95,2.12,2.85,2.85,0,0,0,.95,2.13,3.25,3.25,0,0,0,2.3.9,3.31,3.31,0,0,0,2.33-.89,2.83,2.83,0,0,0,0-4.26A3.33,3.33,0,0,0,738.21,348.08Z"/><path class="cls-7" d="M765.17,363.71a13.11,13.11,0,0,0-9-3.21A13.34,13.34,0,0,0,746.8,364a11.08,11.08,0,0,0-3.87,8.48,10.08,10.08,0,0,0,3.55,7.95,13.4,13.4,0,0,0,9.11,3.1,13.6,13.6,0,0,0,9.43-3.38,10.89,10.89,0,0,0,3.76-8.47A10.26,10.26,0,0,0,765.17,363.71ZM761.4,377a9.18,9.18,0,0,1-6,1.92,7.75,7.75,0,0,1-5.34-1.76,5.93,5.93,0,0,1-2-4.71,6.6,6.6,0,0,1,2.38-5.08,8.55,8.55,0,0,1,5.89-2.13,7.58,7.58,0,0,1,5.34,1.91,6.23,6.23,0,0,1,2.09,4.78A6.29,6.29,0,0,1,761.4,377Z"/><polygon class="cls-7" points="767.29 348.61 760.46 348.61 754.87 356.15 759.35 356.15 767.29 348.61"/><path class="cls-7" d="M788,360.45a8.89,8.89,0,0,0-4.37,1.1,23,23,0,0,0-4.37,3.36l.56-3.91h-5.07l-3.5,22.06h5.07l1.44-9.09a14.5,14.5,0,0,1,2.91-7,6.32,6.32,0,0,1,4.93-2.64,3.81,3.81,0,0,1,2.8,1.05,3.66,3.66,0,0,1,1.07,2.72,4.73,4.73,0,0,1-.06.91l-2.27,14.05h5l2.51-15.17a6.16,6.16,0,0,0-2-5.46A6.55,6.55,0,0,0,788,360.45Z"/><polygon class="cls-7" points="352.81 153.28 320.94 153.12 306.89 182.67 324.86 182.75 352.81 153.28"/><polygon class="cls-7" points="380.5 313.38 298.03 312.97 298.23 273.55 372.34 273.91 372.46 249.45 298.35 249.08 298.5 216.89 378.26 217.29 378.38 192.72 268.93 192.19 268.22 337.38 380.38 337.94 380.5 313.38"/><path class="cls-7" d="M504.47,286.6a70.31,70.31,0,0,0-15.77-12.21q18.66-2.58,28.84-12.93t10.25-27.39q.08-13.47-6.51-23.16a35.54,35.54,0,0,0-16.87-13.65q-10.29-4-34.34-4.08l-62.7-.31-.71,145.2,29.69.15.3-60.62,6.14,0q10.31,0,15,1.71a22.86,22.86,0,0,1,8.8,6q4.15,4.32,15.71,21.52l21.39,31.7,35.54.17-17.78-28.41Q510.69,293.23,504.47,286.6Zm-45.62-32.07-22.09-.11.18-36.84,23.32.11q20,.1,24.17,1.21a17.55,17.55,0,0,1,9.29,5.84q3.42,4.23,3.39,11.16,0,7.23-3.5,11.57a16.22,16.22,0,0,1-9,5.75Q479.1,254.63,458.85,254.53Z"/><polygon class="cls-7" points="668.66 314.8 586.2 314.39 586.39 274.97 660.51 275.34 660.63 250.87 586.51 250.51 586.67 218.32 666.43 218.71 666.55 194.15 557.1 193.61 556.39 338.81 668.54 339.36 668.66 314.8"/><polygon class="cls-7" points="718.03 315.04 799.24 217.59 799.35 194.81 691.36 194.27 691.24 218.84 760.02 219.18 682.07 312.89 681.94 339.43 801.83 340.02 801.95 315.46 718.03 315.04"/><path class="cls-7" d="M232,242.94q9.5-18,9.5-44.6,0-29.28-11-47.86t-27.93-24.27q-10.61-3.51-45.1-3.51H95.76V368h38.3V275.49h25.16q34.82,0,49.06-7.28T232,242.94Zm-35-23.63q-4.92,8.31-12.61,11.49T155.31,234H134.06V164.2h18.72q24.1,0,31.56,2.85t12.53,11.24q5.07,8.4,5.08,20.64Q202,211,197,219.31Z"/></g></g></svg>