<svg xmlns="http://www.w3.org/2000/svg" viewBox="0 0 575.75 520.75"><defs><style>.cls-1{fill:#1d3762;stroke-width:0.75px;}.cls-1,.cls-2{stroke:#010101;}.cls-1,.cls-2,.cls-3{stroke-miterlimit:10;}.cls-2{font-size:32.18px;stroke-width:0.25px;font-family:TwCenMT-Italic, Tw Cen MT;font-style:italic;letter-spacing:-0.02em;}.cls-2,.cls-8{fill:#fff;}.cls-3,.cls-7{fill:none;}.cls-3{stroke:#fff;}.cls-4{fill:#2dabe3;}.cls-5{fill:#f4e600;}.cls-6{fill:#d42185;}</style></defs><g id="Capa_2" data-name="Capa 2"><g id="Capa_1-2" data-name="Capa 1"><rect class="cls-1" x="0.38" y="0.38" width="575" height="520"/><text class="cls-2" transform="translate(138.68 440.89) scale(1.07 1)">Imprimiendo tú Imaginación </text><rect class="cls-3" x="139.38" y="79.38" width="104" height="334"/><rect class="cls-4" x="151.38" y="66.38" width="99.85" height="334"/><path class="cls-5" d="M263.23,305.88h94.4c12,0,21.77-10.16,21.77-22.68V194.88H263.23Z"/><path class="cls-6" d="M357.63,66.88H262.27v112H379.4V89.55C379.4,77,369.65,66.88,357.63,66.88Z"/><path class="cls-7" d="M105.48,198.43q2.79,2.44,8.64,2.44t8.61-2.52a8,8,0,0,0,2.87-6.25,7.87,7.87,0,0,0-2.85-6.22c-1.89-1.65-4.81-2.47-8.74-2.47s-6.71.8-8.56,2.4a8.56,8.56,0,0,0,0,12.62Z"/><path class="cls-7" d="M280.77,141.38q-9.39-3.52-39.75-3.53H217.45V224h26.77q27,0,36.65-3.94t15.87-14.18q6.19-10.26,6.2-25.17,0-15.1-6.4-25.47T280.77,141.38Z"/><path class="cls-7" d="M342.84,357.82a6.8,6.8,0,0,0,1.31-4.32,6.38,6.38,0,0,0-1.26-4.17,6.61,6.61,0,0,0-3.48-2.18q-1.56-.4-9-.45l-8.71,0-.07,13.75,8.26,0c5,0,8.25-.14,9.63-.49A6.09,6.09,0,0,0,342.84,357.82Z"/><path class="cls-7" d="M109.92,261.65a4.36,4.36,0,0,0-2.65-.74,4.09,4.09,0,0,0-2.55.74,3.67,3.67,0,0,0-1.33,2,28.53,28.53,0,0,0-.25,5.16v5h8.44v-4.72a27.09,27.09,0,0,0-.33-5.5A3.44,3.44,0,0,0,109.92,261.65Z"/><rect class="cls-8" x="97.51" y="377.58" width="33.26" height="6.34"/><polygon class="cls-8" points="130.78 352.59 130.78 346.2 97.51 346.2 97.51 352.12 119.73 352.12 97.51 365.02 97.51 371.2 130.78 371.2 130.78 365.28 109.08 365.28 130.78 352.59"/><polygon class="cls-8" points="97.51 342.5 130.78 331.22 130.78 324.44 97.51 313.14 97.51 319.9 122.13 327.62 97.51 335.6 97.51 342.5"/><polygon class="cls-8" points="97.51 309.7 130.78 309.7 130.78 285.74 125.15 285.74 125.15 303.36 116.12 303.36 116.12 287.52 110.51 287.52 110.51 303.36 103.14 303.36 103.14 286.32 97.51 286.32 97.51 309.7"/><path class="cls-8" d="M117.26,269.27a4.89,4.89,0,0,1,1.37-1.88,44.81,44.81,0,0,1,4.91-3.38l7.23-4.6v-7.59l-6.48,3.82a38.7,38.7,0,0,0-5.42,3.65,15.45,15.45,0,0,0-2.78,3.38,10,10,0,0,0-3-6.15,9,9,0,0,0-6.29-2.16,9.63,9.63,0,0,0-5.29,1.41,7.73,7.73,0,0,0-3.11,3.62,21.27,21.27,0,0,0-.9,7.34v13.4h33.27v-6.35H116.89v-1.31A9.91,9.91,0,0,1,117.26,269.27Zm-5.68,4.51h-8.44v-5a28.53,28.53,0,0,1,.25-5.16,3.67,3.67,0,0,1,1.33-2,4.09,4.09,0,0,1,2.55-.74,4.36,4.36,0,0,1,2.65.74,3.44,3.44,0,0,1,1.33,1.91,27.09,27.09,0,0,1,.33,5.5Z"/><path class="cls-8" d="M121.11,224.16a10.63,10.63,0,0,0-5.09,1.12,9.07,9.07,0,0,0-3.43,3.26,26.09,26.09,0,0,0-2.53,6.94q-1.11,4.53-2,5.79a2.76,2.76,0,0,1-2.28,1.26,2.72,2.72,0,0,1-2.31-1.39,7.07,7.07,0,0,1-.93-4,6.36,6.36,0,0,1,1.07-4,5.59,5.59,0,0,1,3.74-1.81l-.29-6.37a9.69,9.69,0,0,0-7.47,3.3Q97,231.47,97,237a15.4,15.4,0,0,0,1.11,6.21,8.84,8.84,0,0,0,3.28,3.94,8.69,8.69,0,0,0,4.9,1.43,8.92,8.92,0,0,0,4.36-1.11,9,9,0,0,0,3.28-3,21,21,0,0,0,2.31-5.95,54.35,54.35,0,0,1,1.71-5.72,4.12,4.12,0,0,1,1.31-1.75,3.15,3.15,0,0,1,1.92-.58,4,4,0,0,1,3.24,1.65,7.13,7.13,0,0,1,1.3,4.54q0,5.82-6.38,6.86l.64,6.22q11.41-1.32,11.41-12.9,0-6.56-3-9.63A9.64,9.64,0,0,0,121.11,224.16Z"/><rect class="cls-8" x="97.51" y="212.43" width="33.26" height="6.34"/><path class="cls-8" d="M104.56,205.39a20.76,20.76,0,0,0,9.79,2q8.19,0,12.88-4.51,4.11-3.94,4.11-10.8t-4.15-10.74q-4.69-4.51-13-4.51t-12.73,4.26a14.54,14.54,0,0,0-4.47,11,15.63,15.63,0,0,0,1.89,7.94A13.71,13.71,0,0,0,104.56,205.39Zm.89-19.58q2.77-2.4,8.56-2.4c3.93,0,6.85.82,8.74,2.47a7.87,7.87,0,0,1,2.85,6.22,8,8,0,0,1-2.87,6.25q-2.87,2.52-8.61,2.52t-8.64-2.44a8.56,8.56,0,0,1,0-12.62Z"/><polygon class="cls-8" points="97.51 171.59 130.77 171.59 130.77 165.66 109.08 165.66 130.77 152.97 130.77 146.58 97.51 146.58 97.51 152.5 119.72 152.5 97.51 165.4 97.51 171.59"/><polygon class="cls-8" points="103.14 116.27 97.51 116.27 97.51 139.65 130.77 139.65 130.77 115.69 125.15 115.69 125.15 133.31 116.12 133.31 116.12 117.48 110.51 117.48 110.51 133.31 103.14 133.31 103.14 116.27"/><path class="cls-8" d="M101.34,109.12a8.69,8.69,0,0,0,4.9,1.43,8.92,8.92,0,0,0,4.36-1.11,9.2,9.2,0,0,0,3.28-3,21.08,21.08,0,0,0,2.31-6,54.35,54.35,0,0,1,1.71-5.72A4.12,4.12,0,0,1,119.2,93a3.18,3.18,0,0,1,1.93-.58,4,4,0,0,1,3.23,1.65,7.12,7.12,0,0,1,1.31,4.53q0,5.82-6.38,6.87l.64,6.21q11.41-1.31,11.41-12.89,0-6.56-3-9.64a9.68,9.68,0,0,0-7.28-3.08A10.63,10.63,0,0,0,116,87.22a9.07,9.07,0,0,0-3.43,3.26,26.13,26.13,0,0,0-2.53,6.93q-1.11,4.55-2,5.8a2.76,2.76,0,0,1-2.28,1.26,2.72,2.72,0,0,1-2.31-1.39,7.09,7.09,0,0,1-.93-4,6.41,6.41,0,0,1,1.07-4,5.63,5.63,0,0,1,3.74-1.8L107,87a9.69,9.69,0,0,0-7.47,3.3Q96.94,93.41,96.94,99a15.4,15.4,0,0,0,1.11,6.21A8.92,8.92,0,0,0,101.34,109.12Z"/><polygon class="cls-8" points="279.79 333.67 290.24 322.67 278.33 322.61 273.08 333.64 279.79 333.67"/><polygon class="cls-8" points="269.84 367.55 297.53 367.69 297.58 358.56 269.89 358.42 269.95 346.41 299.75 346.56 299.79 337.39 258.9 337.19 258.63 391.38 300.53 391.58 300.58 382.41 269.77 382.26 269.84 367.55"/><path class="cls-8" d="M346.9,372.42a26.21,26.21,0,0,0-5.89-4.56c4.64-.64,8.24-2.25,10.77-4.82a14.09,14.09,0,0,0,3.84-10.23,14.9,14.9,0,0,0-2.44-8.64,13.25,13.25,0,0,0-6.3-5.09q-3.84-1.49-12.83-1.52l-23.43-.12-.27,54.19,11.1.05.11-22.62h2.29a18.41,18.41,0,0,1,5.59.64,8.6,8.6,0,0,1,3.29,2.23,76.8,76.8,0,0,1,5.87,8l8,11.83,13.28.07-6.64-10.61A62.47,62.47,0,0,0,346.9,372.42Zm-17-12-8.26,0,.07-13.75,8.71,0q7.47,0,9,.45a6.61,6.61,0,0,1,3.48,2.18,6.38,6.38,0,0,1,1.26,4.17,6.8,6.8,0,0,1-1.31,4.32,6.09,6.09,0,0,1-3.35,2.14C338.11,360.31,334.9,360.48,329.86,360.45Z"/><polygon class="cls-8" points="377.51 368.07 405.2 368.21 405.25 359.08 377.56 358.94 377.62 346.93 407.42 347.08 407.46 337.91 366.56 337.71 366.3 391.9 408.2 392.1 408.25 382.94 377.44 382.79 377.51 368.07"/><polygon class="cls-8" points="426.69 383.02 457.04 346.65 457.08 338.15 416.73 337.96 416.69 347.12 442.38 347.25 413.26 382.22 413.21 392.13 458 392.34 458.05 383.18 426.69 383.02"/><path class="cls-8" d="M340.79,235.06q12-22.22,12-55.06,0-36.15-13.85-59.09T303.73,91q-13.35-4.35-56.79-4.34H169.23V389.49h48.22V275.24h31.69q43.83,0,61.77-9T340.79,235.06Zm-44.05-29.17q-6.19,10.25-15.87,14.18T244.22,224H217.45V137.85H241q30.36,0,39.75,3.53t15.77,13.87q6.39,10.35,6.4,25.47Q302.94,195.65,296.74,205.89Z"/><path class="cls-3" d="M256.51,77.66H367.66a0,0,0,0,1,0,0V192.14a0,0,0,0,1,0,0H279.19a22.68,22.68,0,0,1-22.68-22.68V77.66A0,0,0,0,1,256.51,77.66Z" transform="translate(624.18 269.81) rotate(180)"/><path class="cls-3" d="M254.75,204.49H369.23a0,0,0,0,1,0,0V315.84a0,0,0,0,1,0,0h-91.8a22.68,22.68,0,0,1-22.68-22.68V204.49A0,0,0,0,1,254.75,204.49Z" transform="translate(51.82 572.16) rotate(-90)"/></g></g></svg>